<svg width="512" height="512" xmlns="http://www.w3.org/2000/svg">
  <path d="M21.8824 45.7561C18.62 45.7561 15.6496 45.1421 12.9713 43.9213C10.3001 42.729 7.98509 41.0727 6.04046 38.938C4.09583 36.8033 2.59996 34.376 1.55998 31.6416C0.519993 28.9144 0 26.0229 0 22.9816C0 20.1829 0.420268 17.4343 1.25368 14.7428C2.08709 12.0155 3.35502 9.54531 5.05746 7.34639C6.7599 5.10463 8.91111 3.3198 11.5182 1.99188C14.1609 0.663959 17.2666 0 20.8424 0C24.4183 0 27.7876 0.649681 30.53 1.9419C33.2724 3.19843 35.5305 4.89759 37.3041 7.03226C39.0778 9.16692 40.3956 11.58 41.2646 14.2716C42.1336 16.9631 42.5682 19.726 42.5682 22.5603C42.5682 25.9515 42.0624 29.0643 41.058 31.8986C40.0537 34.7329 38.629 37.196 36.7841 39.295C34.9464 41.3582 32.7524 42.9503 30.2237 44.0712C27.6878 45.1921 24.9098 45.7489 21.8896 45.7489L21.8824 45.7561ZM21.8824 36.989C23.9695 36.989 25.8928 36.4821 27.6665 35.4683C29.4401 34.4188 30.8648 32.791 31.9404 30.585C33.016 28.3789 33.5573 25.5089 33.5573 21.9821C33.5573 18.9407 32.9661 16.4348 31.7837 14.4786C30.6012 12.5224 29.0768 11.066 27.1963 10.1236C25.3229 9.1812 23.3569 8.71001 21.3126 8.71001C18.9833 8.71001 17.0244 9.13123 15.4288 9.96653C13.8332 10.809 12.5439 11.9441 11.5752 13.3791C10.5993 14.7785 9.90835 16.3562 9.48808 18.1054C9.06782 19.8545 8.86124 21.6536 8.86124 23.5099C8.86124 25.3661 9.21028 27.0581 9.90123 28.7073C10.5993 30.3137 11.5324 31.7487 12.7149 33.0124C13.933 34.2403 15.322 35.2184 16.882 35.9538C18.4419 36.6534 20.1088 37.0032 21.8824 37.0032V36.989Z" fill="#28B294"></path>
  <path d="M57.7939 8.79651C51.4113 8.79651 46.2351 13.9824 46.2351 20.3769V43.0476C46.2351 43.8163 46.2351 45.0184 46.2351 45.0184L53.196 38.5079V20.3769C53.196 17.8369 55.2586 15.7704 57.7939 15.7704C60.3292 15.7704 62.3918 17.8369 62.3918 20.3769V29.2614L69.3527 22.2541V20.3769C69.3527 13.9824 64.1765 8.79651 57.7939 8.79651Z" fill="#28B294"></path>
</svg>


